<?xml version="1.0" encoding="UTF-8" standalone="no"?>
<!-- Generator: Adobe Illustrator 13.0.2, SVG Export Plug-In . SVG Version: 6.00 Build 14948)  -->
<svg
   xmlns:dc="http://purl.org/dc/elements/1.1/"
   xmlns:cc="http://creativecommons.org/ns#"
   xmlns:rdf="http://www.w3.org/1999/02/22-rdf-syntax-ns#"
   xmlns:svg="http://www.w3.org/2000/svg"
   xmlns="http://www.w3.org/2000/svg"
   xmlns:sodipodi="http://sodipodi.sourceforge.net/DTD/sodipodi-0.dtd"
   xmlns:inkscape="http://www.inkscape.org/namespaces/inkscape"
   version="1.0"
   id="Layer_1"
   x="0px"
   y="0px"
   width="64.162498"
   height="96.529999"
   viewBox="-0.258 -0.548 123.547 123.539"
   xml:space="preserve"
   sodipodi:version="0.32"
   inkscape:version="0.46"
   sodipodi:docname="man_walking.svg"
   inkscape:output_extension="org.inkscape.output.svg.inkscape"><metadata
   id="metadata18"><rdf:RDF><cc:Work
       rdf:about=""><dc:format>image/svg+xml</dc:format><dc:type
         rdf:resource="http://purl.org/dc/dcmitype/StillImage" /></cc:Work></rdf:RDF></metadata><defs
   id="defs16"><inkscape:perspective
   sodipodi:type="inkscape:persp3d"
   inkscape:vp_x="0 : 61.769501 : 1"
   inkscape:vp_y="0 : 1000 : 0"
   inkscape:vp_z="123.547 : 61.769501 : 1"
   inkscape:persp3d-origin="61.773499 : 41.179667 : 1"
   id="perspective20" />
	
	
	
	
	
</defs><sodipodi:namedview
   inkscape:window-height="744"
   inkscape:window-width="1280"
   inkscape:pageshadow="2"
   inkscape:pageopacity="0.0"
   guidetolerance="10.0"
   gridtolerance="10.0"
   objecttolerance="10.0"
   borderopacity="1.0"
   bordercolor="#666666"
   pagecolor="#ffffff"
   id="base"
   showgrid="false"
   inkscape:zoom="3.7397097"
   inkscape:cx="22.599335"
   inkscape:cy="67.117509"
   inkscape:window-x="0"
   inkscape:window-y="22"
   inkscape:current-layer="Layer_1" />
<g
   id="g2398"
   transform="matrix(1.8906782,0,0,1.8906782,1.3479769,-28.995988)"><path
     d="M 28.402498,15.443998 C 32.800498,15.443998 36.386498,11.873998 36.386498,7.4599978 C 36.386498,3.0379978 32.800498,-0.5480022 28.402498,-0.5480022 C 23.988498,-0.5480022 20.402498,3.0379978 20.402498,7.4599978 C 20.402498,11.872998 23.987498,15.443998 28.402498,15.443998 z"
     id="path11" /><path
     sodipodi:nodetypes="ccsccccsccccsccccccsscccscccccccscccccccssc"
     d="M 62.753498,86.654998 L 49.769498,71.326998 C 49.769498,71.326998 45.714498,47.646998 45.714498,47.592998 C 45.714498,47.569998 45.105498,44.912998 45.105498,44.912998 C 45.128498,44.935998 43.464498,37.435998 42.199498,31.576998 C 44.222498,32.748998 46.058498,33.803998 46.152498,33.849998 C 46.254498,34.068998 53.035498,46.982998 53.035498,46.982998 C 53.551498,47.935998 54.402498,48.646998 55.433498,48.959998 C 56.480498,49.279998 57.581498,49.178998 58.535498,48.670998 C 59.480498,48.178998 60.191498,47.326998 60.512498,46.279998 C 60.848498,45.248998 60.754498,44.154998 60.239498,43.201998 L 52.794498,29.013998 C 52.794498,29.013998 52.505498,28.505998 52.114498,28.115998 C 51.575498,27.576998 50.403498,26.912998 50.403498,26.912998 L 35.950498,18.685998 C 34.114498,17.763998 32.091498,17.443998 30.067498,17.880998 C 29.239498,18.052998 28.458498,18.372998 27.575498,18.857998 C 27.473498,18.880998 24.286498,20.302998 22.427498,24.646998 L 15.005498,39.584998 C 15.005498,39.584998 3.7082903,41.786848 3.3174983,41.857998 C 1.1933513,42.244732 0.60633033,43.364069 0.26249833,44.075998 C -0.16751567,44.966374 -0.28367967,45.764903 -0.25350167,46.692998 C 0.16049833,48.887998 2.3084983,50.348998 4.5124983,49.911998 L 18.520498,47.177998 C 18.520498,47.177998 19.723498,46.810998 20.231498,46.443998 C 20.895498,45.982998 21.379498,45.005998 21.379498,45.005998 L 25.067498,37.583998 C 25.067498,37.583998 27.598498,49.567998 27.645498,49.794998 C 27.356498,50.083998 16.153498,61.974998 16.153498,61.974998 L 15.958498,62.216998 C 14.864498,63.216998 14.255498,64.536998 14.255498,65.927998 L 14.255498,91.122998 C 14.255498,93.810998 16.450498,95.981998 19.138498,95.981998 C 21.794498,95.981998 23.990498,93.809998 23.990498,91.122998 C 23.990498,91.122998 23.990498,70.419998 23.990498,70.075998 C 25.021498,69.005998 33.607498,59.950998 35.904498,57.552998 C 36.146498,58.974998 38.365498,71.740998 38.365498,71.740998 C 38.560498,72.865998 39.099498,73.888998 39.904498,74.717998 C 39.904498,74.740998 55.334498,92.959998 55.334498,92.959998 C 56.193498,93.936998 57.365498,94.545998 58.654498,94.662998 C 59.951498,94.764998 61.193498,94.350998 62.193498,93.514998 C 63.318498,92.569998 63.904498,91.170998 63.904498,89.803998 C 63.902498,88.685998 63.534498,87.583998 62.753498,86.654998 z"
     id="path13" /></g>
</svg>