<?xml version="1.0"?><svg width="744.09448819" height="1052.3622047" xmlns="http://www.w3.org/2000/svg">
 <title>walking</title>

 <metadata id="metadata12390">image/svg+xmlOther map symbolsMohamed IbrahimPublic Domainclker.comother map symbols</metadata>
 <g>
  <title>Layer 1</title>
  <g externalResourcesRequired="false" id="layer1">
   <path fill="#231f20" fill-rule="nonzero" id="path5430" d="m321.0672,193.080765c14.824646,1.204819 27.71109,-9.84819 28.915924,-24.672821c1.152435,-14.824646 -9.900543,-27.71109 -24.725189,-28.968307c-14.772278,-1.100052 -27.763489,9.952942 -28.863556,24.777588c-1.257202,14.719879 9.795807,27.71109 24.672821,28.863541"/>
   <path fill="#231f20" fill-rule="nonzero" id="path5432" d="m298.227844,204.133759c5.34314,-3.719254 11.786377,-6.181305 18.910583,-5.552689c9.219543,0.733368 16.815216,6.443222 21.424988,13.410278l27.082489,53.798264l37.035431,25.510956c3.195404,2.409668 5.133606,6.33847 4.714539,10.633942c-0.523834,6.65274 -6.33844,11.629211 -12.991211,11.053009c-2.042969,-0.104767 -3.66687,-0.942932 -5.552673,-1.781067l-40.388,-27.815857c-1.204834,-0.99527 -2.252502,-2.252502 -3.090637,-3.562103l-10.110107,-20.167786l-12.153076,53.641113l47.669373,56.365082c1.100037,1.728668 1.833435,3.771637 2.252502,5.814606l12.886444,68.046692c-0.104767,1.519135 0.104767,2.462036 0,3.66687c-0.733368,10.162476 -9.533875,17.496216 -19.539215,16.762848c-8.276642,-0.681 -14.457947,-6.809906 -16.396149,-14.405579l-12.153076,-63.751221l-38.764069,-42.430939l-9.01004,41.330902c-0.314301,1.938202 -2.881104,6.024139 -3.614502,7.648041l-37.244934,62.75592c-3.666885,5.709839 -9.900558,9.376709 -16.972397,8.800476c-10.110092,-0.733368 -17.600983,-9.533844 -16.762848,-19.591553c0.209549,-2.828735 1.414368,-5.814636 2.462051,-7.857605l34.573364,-57.988983l28.863525,-127.816711l-18.858185,15.243713l-10.005341,45.521606c-1.309586,5.867004 -6.65274,10.633942 -12.886429,10.162476c-6.757523,-0.523834 -11.68161,-6.33844 -11.157776,-13.095978c0,-0.523834 0.104767,-1.047668 0.209534,-1.67627l11.83876,-53.064896c0.733383,-2.252502 1.990601,-4.295471 3.719269,-5.867004l54.007813,-43.740555z"/>
  </g>
 </g>
</svg>